<?xml version="1.0" encoding="UTF-8" standalone="no"?><!DOCTYPE svg PUBLIC "-//W3C//DTD SVG 1.1//EN" "http://www.w3.org/Graphics/SVG/1.1/DTD/svg11.dtd"><svg width="100%" height="100%" viewBox="0 0 1667 1667" version="1.1" xmlns="http://www.w3.org/2000/svg" xmlns:xlink="http://www.w3.org/1999/xlink" xml:space="preserve" xmlns:serif="http://www.serif.com/" style="fill-rule:evenodd;clip-rule:evenodd;stroke-linecap:round;stroke-linejoin:round;stroke-miterlimit:1.5;"><g><path d="M1573.77,462.417l-0,740.283c-0,204.286 -165.855,370.141 -370.141,370.141l-740.283,-0c-204.286,-0 -370.141,-165.855 -370.141,-370.141l-0,-740.283c-0,-204.286 165.855,-370.141 370.141,-370.141l740.283,-0c204.286,-0 370.141,165.855 370.141,370.141Z" style="fill:none;stroke:#000;stroke-width:104.17px;"/><path d="M105.2,1144.37l369.623,-363.167l142.003,108.007l-143.266,208.474l358.782,-462.602l167.518,185.969l-93.436,61.85l93.436,-61.85l236.305,269.985l-153.262,-175.106l118.413,-127.815l351.271,345.914" style="fill:none;stroke:#000;stroke-width:104.17px;"/><circle cx="832.909" cy="350.82" r="86.063" style="fill:none;stroke:#000;stroke-width:75px;"/></g></svg>